<svg id="eFT5q2AHyvY1" xmlns="http://www.w3.org/2000/svg" xmlns:xlink="http://www.w3.org/1999/xlink" viewBox="0 0 300 300" shape-rendering="geometricPrecision" text-rendering="geometricPrecision"><line x1="-82.285411" y1="0" x2="82.285411" y2="0" transform="matrix(1.093504 0 0 1.061635 150.17649 106.392135)" fill="none" stroke="#000" stroke-width="10" stroke-linecap="round"/><line x1="-82.285411" y1="0" x2="82.285411" y2="0" transform="matrix(1.093504 0 0 1.061635 150.17649 192.594874)" fill="none" stroke="#000" stroke-width="10" stroke-linecap="round"/><line x1="-82.285411" y1="0" x2="82.285411" y2="0" transform="matrix(.319473 0.380733-.766044 0.642788 252.780189 120.171269)" fill="none" stroke="#000" stroke-width="10" stroke-linecap="round"/><line x1="-82.285411" y1="0" x2="82.285411" y2="0" transform="matrix(.319473 0.380733-.766044 0.642788 47.219811 179.828731)" fill="none" stroke="#000" stroke-width="10" stroke-linecap="round"/><line x1="-82.285411" y1="0" x2="82.285411" y2="0" transform="matrix(.319473-.380733 0.766044 0.642788 47.219811 120.171269)" fill="none" stroke="#000" stroke-width="10" stroke-linecap="round"/><line x1="-82.285411" y1="0" x2="82.285411" y2="0" transform="matrix(.319473-.380733 0.766044 0.642788 252.780189 179.828731)" fill="none" stroke="#000" stroke-width="10" stroke-linecap="round"/></svg>
